# xmcd CD database file
#
# Track frame offsets:
#	150
#	27065
#	45835
#	79342
#	105592
#	126335
#	144962
#	161472
#	184320
#	222757
#
# Disc length: 3163 seconds
#
# Revision: 2
# Processed by: cddbd v1.5.1PL0 Copyright (c) Steve Scherf et al.
# Submitted via: CDex 1.51
#
DISCID=7c0c590a
DTITLE=AC/DC - If You Want Blood You've Got It
DYEAR=1978
DGENRE=Rock
TTITLE0=Riff Raff
TTITLE1=Hell Ain't A Bad Place To Be
TTITLE2=Bad Boy Boogie
TTITLE3=The Jack
TTITLE4=Problem Child
TTITLE5=Whole Lotta Rosie
TTITLE6=Rock 'n' Roll Damnation
TTITLE7=High Voltage
TTITLE8=Let There Be Rock
TTITLE9=Rocker
EXTD=YEAR: 1978
EXTT0=
EXTT1=
EXTT2=
EXTT3=
EXTT4=
EXTT5=
EXTT6=
EXTT7=
EXTT8=
EXTT9=
PLAYORDER=
